{"title":"The Shadow Riders  (Western 1982)  Excellent quality in a thimbl","uid":9247530,"size":520150686,"categoryP":"video","categoryS":"movies","magnet":"?xt=urn:btih:90d00bd851e8ef81cf1a01459cc69504ac271bcc&amp;dn=The+Shadow+Riders++%28Western+1982%29++Excellent+quality+in+a+thimbl&amp;tr=udp%3A%2F%2Ftracker.openbittorrent.com%3A80&amp;tr=udp%3A%2F%2Fopen.demonii.com%3A1337&amp;tr=udp%3A%2F%2Ftracker.coppersurfer.tk%3A6969&amp;tr=udp%3A%2F%2Fexodus.desync.com%3A6969","seeders":6,"leechers":5,"uploader":"BurtonW","files":12,"time":1385400315,"description":"Excellent quality!\n\nEnglish subtitles.\n\nStoryline:\n\nTom Selleck and Sam Elliot star as brothers who battled on opposing sides of the Civil War. When they return home, they discover that their family, including a younger brother and one of the brother's fiancee, have been kidnapped by a marauding band of rebel guerrillas who refuse to accept the defeat of the Confederacy. The women are destined to be sold to a foreign whorehouse . Aided by their uncle, they set out to rescue the family.\n\n\nTechnical info:\n\nGeneral:\n\nComplete name : The Shadow Riders (Western 1982) Tom Selleck, Sam Elliott &amp; Dominique Dunne.mp4\nFormat : MPEG-4\nFormat profile : Base Media / Version 2\nCodec ID : mp42\nFile size : 490 MiB\nDuration : 1h 32mn\nOverall bit rate mode : Variable\nOverall bit rate : 745 Kbps\nEncoded date : UTC 2013-11-24 16:07:25\nTagged date : UTC 2013-11-24 18:44:28\n\nVideo:\n\nID : 1\nFormat : AVC\nFormat/Info : Advanced Video Codec\nFormat profile : &lt;a class=&quot;__cf_email__&quot; href=&quot;/cdn-cgi/l/email-protection&quot; data-cfemail=&quot;a2efc3cbcce2ee968c92&quot;&gt;[email&amp;#160;protected]&lt;/a&gt;&lt;script cf-hash='f9e31' type=&quot;text/javascript&quot;&gt;\n/* &lt;![CDATA[ */!function(){try{var t=&quot;currentScript&quot;in document?document.currentScript:function(){for(var t=document.getElementsByTagName(&quot;script&quot;),e=t.length;e--;)if(t[e].getAttribute(&quot;cf-hash&quot;))return t[e]}();if(t&amp;&amp;t.previousSibling){var e,r,n,i,c=t.previousSibling,a=c.getAttribute(&quot;data-cfemail&quot;);if(a){for(e=&quot;&quot;,r=parseInt(a.substr(0,2),16),n=2;a.length-n;n+=2)i=parseInt(a.substr(n,2),16)^r,e+=String.fromCharCode(i);e=document.createTextNode(e),c.parentNode.replaceChild(e,c)}}}catch(u){}}();/* ]]&gt; */&lt;/script&gt;\nFormat settings, CABAC : Yes\nFormat settings, ReFrames : 16 frames\nCodec ID : avc1\nCodec ID/Info : Advanced Video Coding\nDuration : 1h 32mn\nBit rate mode : Variable\nBit rate : 576 Kbps\nWidth : 400 pixels\nHeight : 304 pixels\nDisplay aspect ratio : 4:3\nFrame rate mode : Constant\nFrame rate : 25.000 fps\nColor space : YUV\nChroma subsampling : 4:2:0\nBit depth : 8 bits\nScan type : Progressive\nBits/(Pixel*Frame) : 0.189\nStream size : 379 MiB (77%)\nWriting library : x264 core 130 r2273 b3065e6\nEncoding settings : Deleted\nEncoded date : UTC 2013-11-24 16:07:25\nTagged date : UTC 2013-11-24 18:44:28\nColor primaries : BT.601 PAL\nTransfer characteristics : BT.709\nMatrix coefficients : BT.601\n\nAudio:\n\nID : 2\nFormat : AAC\nFormat/Info : Advanced Audio Codec\nFormat profile : LC\nCodec ID : 40\nDuration : 1h 32mn\nBit rate mode : Variable\nBit rate : 160 Kbps\nMaximum bit rate : 228 Kbps\nChannel(s) : 2 channels\nChannel positions : Front: L R\nSampling rate : 48.0 KHz\nCompression mode : Lossy\nDelay relative to video : 80ms\nStream size : 105 MiB (21%)\nLanguage : English\nEncoded date : UTC 2013-11-24 16:07:25\nTagged date : UTC 2013-11-24 18:44:27\n\nText:\n\nID : 3\nFormat : mp4s\nCodec ID : E0\nDuration : 1h 30mn\nBit rate mode : Variable\nBit rate : 4 583 bps\nMaximum bit rate : 4 257 Mbps\nDelay relative to video : 80ms\nStream size : 2.97 MiB (1%)\nLanguage : English\nEncoded date : UTC 2013-11-24 16:07:25\nTagged date : UTC 2013-11-24 18:44:27","torrent":{"xt":"urn:btih:90d00bd851e8ef81cf1a01459cc69504ac271bcc","amp;dn":"The+Shadow+Riders++%28Western+1982%29++Excellent+quality+in+a+thimbl","amp;tr":["udp%3A%2F%2Ftracker.openbittorrent.com%3A80","udp%3A%2F%2Fopen.demonii.com%3A1337","udp%3A%2F%2Ftracker.coppersurfer.tk%3A6969","udp%3A%2F%2Fexodus.desync.com%3A6969"],"infoHash":"90d00bd851e8ef81cf1a01459cc69504ac271bcc","infoHashBuffer":{"type":"Buffer","data":[144,208,11,216,81,232,239,129,207,26,1,69,156,198,149,4,172,39,27,204]},"announce":[],"urlList":[]}}